<svg id="visual" viewBox="0 0 900 700" width="900" height="700" xmlns="http://www.w3.org/2000/svg" xmlns:xlink="http://www.w3.org/1999/xlink" version="1.1"><rect x="0" y="0" width="900" height="700" fill="#001220"></rect><path d="M0 512L21.5 502.7C43 493.3 86 474.7 128.8 472.8C171.7 471 214.3 486 257.2 478.3C300 470.7 343 440.3 385.8 433.7C428.7 427 471.3 444 514.2 456C557 468 600 475 642.8 479.7C685.7 484.3 728.3 486.7 771.2 482.8C814 479 857 469 878.5 464L900 459L900 701L878.5 701C857 701 814 701 771.2 701C728.3 701 685.7 701 642.8 701C600 701 557 701 514.2 701C471.3 701 428.7 701 385.8 701C343 701 300 701 257.2 701C214.3 701 171.7 701 128.8 701C86 701 43 701 21.5 701L0 701Z" fill="#face69"></path><path d="M0 470L21.5 470.3C43 470.7 86 471.3 128.8 471.5C171.7 471.7 214.3 471.3 257.2 485.8C300 500.3 343 529.7 385.8 540.7C428.7 551.7 471.3 544.3 514.2 528.3C557 512.3 600 487.7 642.8 489.2C685.7 490.7 728.3 518.3 771.2 529.5C814 540.7 857 535.3 878.5 532.7L900 530L900 701L878.5 701C857 701 814 701 771.2 701C728.3 701 685.7 701 642.8 701C600 701 557 701 514.2 701C471.3 701 428.7 701 385.8 701C343 701 300 701 257.2 701C214.3 701 171.7 701 128.8 701C86 701 43 701 21.5 701L0 701Z" fill="#e28469"></path><path d="M0 577L21.5 568C43 559 86 541 128.8 542.3C171.7 543.7 214.3 564.3 257.2 569.2C300 574 343 563 385.8 556.3C428.7 549.7 471.3 547.3 514.2 541.5C557 535.7 600 526.3 642.8 527.8C685.7 529.3 728.3 541.7 771.2 542.5C814 543.3 857 532.7 878.5 527.3L900 522L900 701L878.5 701C857 701 814 701 771.2 701C728.3 701 685.7 701 642.8 701C600 701 557 701 514.2 701C471.3 701 428.7 701 385.8 701C343 701 300 701 257.2 701C214.3 701 171.7 701 128.8 701C86 701 43 701 21.5 701L0 701Z" fill="#9d526d"></path><path d="M0 610L21.5 609.3C43 608.7 86 607.3 128.8 604.7C171.7 602 214.3 598 257.2 595.2C300 592.3 343 590.7 385.8 586C428.7 581.3 471.3 573.7 514.2 578.3C557 583 600 600 642.8 605.7C685.7 611.3 728.3 605.7 771.2 606.8C814 608 857 616 878.5 620L900 624L900 701L878.5 701C857 701 814 701 771.2 701C728.3 701 685.7 701 642.8 701C600 701 557 701 514.2 701C471.3 701 428.7 701 385.8 701C343 701 300 701 257.2 701C214.3 701 171.7 701 128.8 701C86 701 43 701 21.5 701L0 701Z" fill="#473355"></path><path d="M0 622L21.5 622.5C43 623 86 624 128.8 631.2C171.7 638.3 214.3 651.7 257.2 659C300 666.3 343 667.7 385.8 660.3C428.7 653 471.3 637 514.2 629C557 621 600 621 642.8 623.2C685.7 625.3 728.3 629.7 771.2 633.2C814 636.7 857 639.3 878.5 640.7L900 642L900 701L878.5 701C857 701 814 701 771.2 701C728.3 701 685.7 701 642.8 701C600 701 557 701 514.2 701C471.3 701 428.7 701 385.8 701C343 701 300 701 257.2 701C214.3 701 171.7 701 128.8 701C86 701 43 701 21.5 701L0 701Z" fill="#001122"></path></svg>